<svg version="1.2" xmlns="http://www.w3.org/2000/svg" viewBox="0 0 641 273" width="641" height="273">
	<title>&lt;Group&gt;</title>
	<style>
		.s0 { fill: #72cddf } 
	</style>
	<g id="&lt;Group&gt;">
		<path id="&lt;Path&gt;" class="s0" d="m302.7 30c-1.8 4.4-2.9 9.3-5.5 13.2-4.8 7.5-5.7 15-2.8 23.3 18.3 51.8 36.6 103.6 54.7 155.5 1.8 5 4.5 8.2 9.8 9.8 7.4 2.3 11.3 9.6 9.8 17.2-1.4 7.1-7.8 11.9-15.4 11.6-10.9-0.5-17.7-12.5-12-22 3.1-5.1 2.9-9.5 1-14.9-18.3-51.5-36.4-103.1-54.4-154.7-3-8.5-8.7-13.7-17.4-16.2-13.6-4-20.7-17.7-16.5-31 4.1-12.7 18.1-19.8 30.8-15.6 10.2 3.3 16.8 12.5 16.9 23.4q0.5 0.2 1 0.4z"/>
		<path id="&lt;Path&gt;" class="s0" d="m464.3 225.3c0.5-2.1 1.3-5.9 2-9.6 1.7-9.2 0.7-18.1-3.1-26.7q-24.3-54.4-48.6-108.9c-3-6.7-8.1-10.9-14.8-13.5-8.4-3.3-13.1-11.4-12.3-20.5 0.8-8.5 7-15.3 15.7-17.3 8.1-1.9 16.9 2 21.2 9.5 3.8 6.7 3.7 13.5-0.2 20-4.6 7.7-4.9 15.3-1.1 23.6 15.5 34.1 30.6 68.3 45.8 102.5 4.9 10.8 12.1 19.3 22.8 24.8 7.3 3.8 12.3 9.8 12.1 18.5-0.1 7.4-3.7 13.1-10.3 16.7-13.2 7.3-29.2-2.3-29.2-19.1z"/>
		<path id="&lt;Path&gt;" class="s0" d="m404.3 254c0.1-0.7 0.3-2.6 0.9-4.3 4.2-11.3 3.5-22.6-0.1-33.8-17.6-54.1-35.4-108.2-53-162.3-2.5-7.8-7.1-13.2-14.7-16.4-10.1-4.2-14.3-15.7-9.7-25.4 4.5-9.7 16.3-13.7 25.8-8.8 9.5 5 13.2 16.7 7.8 26.1-4.4 7.6-4.9 15.1-2.1 23.5q28.1 85.6 55.9 171.3c2.4 7.5 6.4 12.6 13.7 15.6 8.5 3.5 12.2 12.6 9.4 21.4-2.5 8.1-10.3 12.9-18.8 11.7-9-1.3-15.2-8.5-15.1-18.6z"/>
		<path id="&lt;Path&gt;" class="s0" d="m444.6 103.4c0-10.4 8.1-19 18.4-19.6 10.4-0.6 19.3 6.8 20.8 17.1 0.9 6.3 0.8 12.9 3.1 18.6 7.1 17.4 21.5 26.3 39.1 30.8 1.2 0.2 2.4 0.4 3.5 0.6 10.3 2.2 16.8 10.8 16 20.9-0.8 9.8-8.5 17.6-18.2 18.2-10.4 0.6-19.1-6.1-20.8-16.6-1.7-10.9-5-21-11.7-29.8-7.2-9.7-15.8-17.4-28.1-19.9-2.3-0.4-4.7-0.5-7-1-9-2.1-15.2-10-15.1-19.3z"/>
		<path id="&lt;Path&gt;" class="s0" d="m205.1 83.4c0.6-9.8 4.7-16.4 12.9-20.1 8-3.6 15.8-2.6 22.6 3.1 6.9 5.7 9.6 13.5 6.9 22-3.7 11.8-1.5 22.1 4.9 32.3 13.5 21.4 26.8 43 40 64.5 3.8 6.4 8.6 11.5 15.5 14.7 5.1 2.5 7.7 7.3 7.1 11.7-0.7 4.8-4 8.6-8.6 9.8-6.8 1.7-14.1-3.2-14-10.1 0.2-10-3.4-18.4-8.6-26.6q-19.9-31.4-39.1-63.2c-5.3-8.8-12.8-14.5-22.4-17.6-7.6-2.4-13.1-7.2-16-14.7-0.8-2.1-0.9-4.4-1.2-5.8z"/>
		<path id="&lt;Path&gt;" class="s0" d="m591.9 63.9c0-13.5 10.9-24.4 24.4-24.5 13.7 0 24.7 11 24.5 24.6-0.1 13.3-11 24.2-24.2 24.3-13.7 0.1-24.7-10.7-24.7-24.4z"/>
		<path id="&lt;Path&gt;" class="s0" d="m563.6 86.8c12-0.1 21.8 9.5 21.9 21.4 0.1 12-9.5 21.6-21.5 21.7-12 0.1-21.7-9.4-21.8-21.4-0.1-12 9.4-21.6 21.4-21.7z"/>
		<path id="&lt;Path&gt;" class="s0" d="m164.8 192.3c0.1 11.1-8.5 19.9-19.6 20-11.1 0.1-20.1-8.8-20-20 0-10.6 9-19.6 19.6-19.6 11.1-0.1 19.9 8.6 20 19.6z"/>
		<path id="&lt;Path&gt;" class="s0" d="m206.6 135.8c0 11-9 19.9-19.9 19.8-10.8 0-19.5-8.9-19.6-19.7 0-10.8 8.8-19.7 19.5-19.7 11.1-0.1 19.9 8.6 20 19.6z"/>
		<path id="&lt;Path&gt;" class="s0" d="m82.5 238.3c-9.6-0.1-17.2-7.8-17.3-17.5-0.1-9.6 7.9-17.5 17.7-17.4 9.5 0.1 17.3 8.1 17.1 17.6-0.1 9.7-7.9 17.3-17.5 17.3z"/>
		<path id="&lt;Path&gt;" class="s0" d="m29.9 211.6c-0.1 8.2-6.7 14.7-14.9 14.6-8.2 0-14.8-6.7-14.8-14.9 0-8.2 6.7-14.8 14.8-14.8 8.5 0.1 15.1 6.7 14.9 15.1z"/>
	</g>
</svg>